<svg width="80" height="52" viewBox="0 0 80 52" fill="none" xmlns="http://www.w3.org/2000/svg">
<path d="M17.2033 5.76326C17.1125 5.48817 16.9675 5.23407 16.7768 5.01601C16.5861 4.79794 16.3536 4.62033 16.093 4.49368C15.8325 4.36703 15.5492 4.29391 15.2599 4.27864C14.9706 4.26338 14.6812 4.30629 14.4088 4.40482C14.1364 4.50335 13.8865 4.65552 13.6739 4.85231C13.4613 5.0491 13.2904 5.28652 13.1711 5.55053C13.0519 5.81455 12.9868 6.09979 12.9798 6.38939C12.9727 6.679 13.0238 6.96708 13.13 7.2366L18.005 20.7414C18.1343 21.1054 18.1155 21.5055 17.9527 21.8557C17.7899 22.2059 17.4961 22.4782 17.1346 22.614C16.773 22.7498 16.3726 22.7381 16.0195 22.5816C15.6665 22.4251 15.389 22.1362 15.2468 21.7771L10.686 10.0489C10.5828 9.78375 10.4284 9.54148 10.2317 9.33595C10.0349 9.13043 9.79958 8.96567 9.53913 8.85109C9.27869 8.73651 8.99822 8.67435 8.71376 8.66816C8.42929 8.66197 8.14639 8.71187 7.8812 8.81501C7.34564 9.02332 6.91477 9.43584 6.68336 9.96184C6.56878 10.2223 6.50662 10.5027 6.50043 10.7872C6.49424 11.0717 6.54415 11.3546 6.64729 11.6198L13.4918 29.2174C9.80412 28.8188 7.17162 29.7591 5.58345 30.6648C5.15403 30.9027 4.80702 31.2654 4.58841 31.705C4.36979 32.1445 4.28989 32.6401 4.35929 33.1261C4.48712 34.0296 5.09379 34.7879 5.93445 35.1563C8.82912 36.4238 15.4375 39.6803 21.0968 45.0796C23.3198 47.1986 26.5611 48.2668 29.6833 47.3329L35.7478 45.5173C37.5461 44.9778 39.0498 43.5976 39.5936 41.6996C40.2436 39.4311 41.1666 35.5896 41.1666 31.9583C41.1666 29.4666 40.2935 26.3574 39.4983 24.0066C37.921 19.3591 36.1573 14.7658 34.5475 10.1248C34.3593 9.58173 33.9631 9.1357 33.446 8.88479C32.929 8.63389 32.3334 8.59865 31.7904 8.78685C31.2473 8.97504 30.8013 9.37124 30.5504 9.8883C30.2995 10.4054 30.2643 11.0009 30.4525 11.5439L32.6061 17.7493C32.74 18.1294 32.7174 18.5471 32.5433 18.9106C32.3692 19.274 32.0578 19.5535 31.6777 19.6873C31.2976 19.8212 30.8798 19.7986 30.5164 19.6245C30.1529 19.4504 29.8735 19.1391 29.7396 18.7589L25.8743 7.9386C25.6733 7.4077 25.2721 6.97686 24.7567 6.73876C24.2414 6.50065 23.6533 6.47428 23.1187 6.66534C22.5842 6.85639 22.146 7.24959 21.8983 7.76038C21.6507 8.27118 21.6134 8.85876 21.7945 9.39676L25.3001 19.2118C25.4268 19.5895 25.4004 20.0018 25.2267 20.3603C25.053 20.7188 24.7457 20.995 24.3707 21.1296C23.9957 21.2643 23.583 21.2466 23.2208 21.0805C22.8587 20.9144 22.5761 20.613 22.4336 20.2409L17.2033 5.76326ZM40.3736 5.0331C40.4952 4.85763 40.6502 4.70785 40.8297 4.5923C41.0092 4.47675 41.2097 4.39771 41.4198 4.35968C41.6298 4.32165 41.8453 4.32538 42.054 4.37067C42.2626 4.41595 42.4602 4.5019 42.6356 4.6236C44.3863 5.8391 45.838 7.96893 46.748 10.3154C47.6666 12.6858 48.113 15.4808 47.6428 18.1566C47.5681 18.5813 47.3277 18.9588 46.9746 19.2063C46.6215 19.4538 46.1846 19.5508 45.76 19.4761C45.3353 19.4014 44.9577 19.1611 44.7103 18.808C44.4628 18.4549 44.3658 18.0179 44.4405 17.5933C44.7871 15.6173 44.4686 13.4268 43.7168 11.4898C42.9585 9.52676 41.834 8.0231 40.781 7.29293C40.4276 7.04705 40.1862 6.67098 40.1098 6.24728C40.0334 5.82358 40.1283 5.3869 40.3736 5.0331ZM39.6478 9.18443C39.3539 8.86867 38.9465 8.6826 38.5154 8.66716C38.0843 8.65172 37.6647 8.80817 37.349 9.1021C37.0332 9.39602 36.8471 9.80335 36.8317 10.2345C36.8162 10.6656 36.9727 11.0852 37.2666 11.4009C38.1723 12.3716 38.9978 13.5459 38.9978 15.7083C38.9978 16.1392 39.169 16.5526 39.4737 16.8573C39.7785 17.1621 40.1918 17.3333 40.6228 17.3333C41.0538 17.3333 41.4671 17.1621 41.7718 16.8573C42.0766 16.5526 42.2478 16.1392 42.2478 15.7083C42.2478 12.4583 40.9001 10.5299 39.6478 9.18443Z" fill="#9C00CD"/>
<path d="M31.016 33.144C30.368 33.144 29.764 33.04 29.204 32.832C28.652 32.616 28.172 32.312 27.764 31.92C27.356 31.528 27.036 31.068 26.804 30.54C26.58 30.012 26.468 29.432 26.468 28.8C26.468 28.168 26.58 27.588 26.804 27.06C27.036 26.532 27.356 26.072 27.764 25.68C28.18 25.288 28.664 24.988 29.216 24.78C29.768 24.564 30.372 24.456 31.028 24.456C31.756 24.456 32.412 24.584 32.996 24.84C33.588 25.088 34.084 25.456 34.484 25.944L33.236 27.096C32.948 26.768 32.628 26.524 32.276 26.364C31.924 26.196 31.54 26.112 31.124 26.112C30.732 26.112 30.372 26.176 30.044 26.304C29.716 26.432 29.432 26.616 29.192 26.856C28.952 27.096 28.764 27.38 28.628 27.708C28.5 28.036 28.436 28.4 28.436 28.8C28.436 29.2 28.5 29.564 28.628 29.892C28.764 30.22 28.952 30.504 29.192 30.744C29.432 30.984 29.716 31.168 30.044 31.296C30.372 31.424 30.732 31.488 31.124 31.488C31.54 31.488 31.924 31.408 32.276 31.248C32.628 31.08 32.948 30.828 33.236 30.492L34.484 31.644C34.084 32.132 33.588 32.504 32.996 32.76C32.412 33.016 31.752 33.144 31.016 33.144ZM38.5141 33.096C37.8261 33.096 37.2141 32.952 36.6781 32.664C36.1501 32.376 35.7301 31.984 35.4181 31.488C35.1141 30.984 34.9621 30.412 34.9621 29.772C34.9621 29.124 35.1141 28.552 35.4181 28.056C35.7301 27.552 36.1501 27.16 36.6781 26.88C37.2141 26.592 37.8261 26.448 38.5141 26.448C39.1941 26.448 39.8021 26.592 40.3381 26.88C40.8741 27.16 41.2941 27.548 41.5981 28.044C41.9021 28.54 42.0541 29.116 42.0541 29.772C42.0541 30.412 41.9021 30.984 41.5981 31.488C41.2941 31.984 40.8741 32.376 40.3381 32.664C39.8021 32.952 39.1941 33.096 38.5141 33.096ZM38.5141 31.56C38.8261 31.56 39.1061 31.488 39.3541 31.344C39.6021 31.2 39.7981 30.996 39.9421 30.732C40.0861 30.46 40.1581 30.14 40.1581 29.772C40.1581 29.396 40.0861 29.076 39.9421 28.812C39.7981 28.548 39.6021 28.344 39.3541 28.2C39.1061 28.056 38.8261 27.984 38.5141 27.984C38.2021 27.984 37.9221 28.056 37.6741 28.2C37.4261 28.344 37.2261 28.548 37.0741 28.812C36.9301 29.076 36.8581 29.396 36.8581 29.772C36.8581 30.14 36.9301 30.46 37.0741 30.732C37.2261 30.996 37.4261 31.2 37.6741 31.344C37.9221 31.488 38.2021 31.56 38.5141 31.56ZM29.012 43L26.264 34.6H28.28L30.668 42.04H29.66L32.156 34.6H33.956L36.356 42.04H35.384L37.832 34.6H39.692L36.944 43H34.856L32.732 36.472H33.284L31.1 43H29.012Z" fill="#F3F2F2"/>
<path d="M47.2294 26.448C47.7414 26.448 48.1974 26.552 48.5974 26.76C49.0054 26.96 49.3254 27.272 49.5574 27.696C49.7894 28.112 49.9054 28.648 49.9054 29.304V33H48.0334V29.592C48.0334 29.072 47.9174 28.688 47.6854 28.44C47.4614 28.192 47.1414 28.068 46.7254 28.068C46.4294 28.068 46.1614 28.132 45.9214 28.26C45.6894 28.38 45.5054 28.568 45.3694 28.824C45.2414 29.08 45.1774 29.408 45.1774 29.808V33H43.3054V26.544H45.0934V28.332L44.7574 27.792C44.9894 27.36 45.3214 27.028 45.7534 26.796C46.1854 26.564 46.6774 26.448 47.2294 26.448ZM55.5263 26.448C56.0383 26.448 56.4943 26.552 56.8943 26.76C57.3023 26.96 57.6223 27.272 57.8543 27.696C58.0863 28.112 58.2023 28.648 58.2023 29.304V33H56.3303V29.592C56.3303 29.072 56.2143 28.688 55.9823 28.44C55.7583 28.192 55.4383 28.068 55.0223 28.068C54.7263 28.068 54.4583 28.132 54.2183 28.26C53.9863 28.38 53.8023 28.568 53.6663 28.824C53.5383 29.08 53.4743 29.408 53.4743 29.808V33H51.6023V26.544H53.3903V28.332L53.0543 27.792C53.2863 27.36 53.6183 27.028 54.0503 26.796C54.4823 26.564 54.9743 26.448 55.5263 26.448ZM63.15 33.096C62.414 33.096 61.766 32.952 61.206 32.664C60.654 32.376 60.226 31.984 59.922 31.488C59.618 30.984 59.466 30.412 59.466 29.772C59.466 29.124 59.614 28.552 59.91 28.056C60.214 27.552 60.626 27.16 61.146 26.88C61.666 26.592 62.254 26.448 62.91 26.448C63.542 26.448 64.11 26.584 64.614 26.856C65.126 27.12 65.53 27.504 65.826 28.008C66.122 28.504 66.27 29.1 66.27 29.796C66.27 29.868 66.266 29.952 66.258 30.048C66.25 30.136 66.242 30.22 66.234 30.3H60.99V29.208H65.25L64.53 29.532C64.53 29.196 64.462 28.904 64.326 28.656C64.19 28.408 64.002 28.216 63.762 28.08C63.522 27.936 63.242 27.864 62.922 27.864C62.602 27.864 62.318 27.936 62.07 28.08C61.83 28.216 61.642 28.412 61.506 28.668C61.37 28.916 61.302 29.212 61.302 29.556V29.844C61.302 30.196 61.378 30.508 61.53 30.78C61.69 31.044 61.91 31.248 62.19 31.392C62.478 31.528 62.814 31.596 63.198 31.596C63.542 31.596 63.842 31.544 64.098 31.44C64.362 31.336 64.602 31.18 64.818 30.972L65.814 32.052C65.518 32.388 65.146 32.648 64.698 32.832C64.25 33.008 63.734 33.096 63.15 33.096ZM70.6363 33.096C69.9403 33.096 69.3203 32.956 68.7763 32.676C68.2323 32.388 67.8043 31.992 67.4923 31.488C67.1883 30.984 67.0363 30.412 67.0363 29.772C67.0363 29.124 67.1883 28.552 67.4923 28.056C67.8043 27.552 68.2323 27.16 68.7763 26.88C69.3203 26.592 69.9403 26.448 70.6363 26.448C71.3163 26.448 71.9083 26.592 72.4123 26.88C72.9163 27.16 73.2883 27.564 73.5283 28.092L72.0763 28.872C71.9083 28.568 71.6963 28.344 71.4403 28.2C71.1923 28.056 70.9203 27.984 70.6243 27.984C70.3043 27.984 70.0163 28.056 69.7603 28.2C69.5043 28.344 69.3003 28.548 69.1483 28.812C69.0043 29.076 68.9323 29.396 68.9323 29.772C68.9323 30.148 69.0043 30.468 69.1483 30.732C69.3003 30.996 69.5043 31.2 69.7603 31.344C70.0163 31.488 70.3043 31.56 70.6243 31.56C70.9203 31.56 71.1923 31.492 71.4403 31.356C71.6963 31.212 71.9083 30.984 72.0763 30.672L73.5283 31.464C73.2883 31.984 72.9163 32.388 72.4123 32.676C71.9083 32.956 71.3163 33.096 70.6363 33.096ZM77.3399 33.096C76.5799 33.096 75.9879 32.904 75.5639 32.52C75.1399 32.128 74.9279 31.548 74.9279 30.78V25.116H76.7999V30.756C76.7999 31.028 76.8719 31.24 77.0159 31.392C77.1599 31.536 77.3559 31.608 77.6039 31.608C77.8999 31.608 78.1519 31.528 78.3599 31.368L78.8639 32.688C78.6719 32.824 78.4399 32.928 78.1679 33C77.9039 33.064 77.6279 33.096 77.3399 33.096ZM73.9319 28.128V26.688H78.4079V28.128H73.9319ZM44.781 43V41.74L44.661 41.464V39.208C44.661 38.808 44.537 38.496 44.289 38.272C44.049 38.048 43.677 37.936 43.173 37.936C42.829 37.936 42.489 37.992 42.153 38.104C41.825 38.208 41.545 38.352 41.313 38.536L40.641 37.228C40.993 36.98 41.417 36.788 41.913 36.652C42.409 36.516 42.913 36.448 43.425 36.448C44.409 36.448 45.173 36.68 45.717 37.144C46.261 37.608 46.533 38.332 46.533 39.316V43H44.781ZM42.813 43.096C42.309 43.096 41.877 43.012 41.517 42.844C41.157 42.668 40.881 42.432 40.689 42.136C40.497 41.84 40.401 41.508 40.401 41.14C40.401 40.756 40.493 40.42 40.677 40.132C40.869 39.844 41.169 39.62 41.577 39.46C41.985 39.292 42.517 39.208 43.173 39.208H44.889V40.3H43.377C42.937 40.3 42.633 40.372 42.465 40.516C42.305 40.66 42.225 40.84 42.225 41.056C42.225 41.296 42.317 41.488 42.501 41.632C42.693 41.768 42.953 41.836 43.281 41.836C43.593 41.836 43.873 41.764 44.121 41.62C44.369 41.468 44.549 41.248 44.661 40.96L44.949 41.824C44.813 42.24 44.565 42.556 44.205 42.772C43.845 42.988 43.381 43.096 42.813 43.096ZM49.8621 43L47.1501 36.544H49.0821L51.3381 42.1H50.3781L52.7181 36.544H54.5181L51.7941 43H49.8621ZM58.3102 43.096C57.5742 43.096 56.9262 42.952 56.3662 42.664C55.8142 42.376 55.3862 41.984 55.0822 41.488C54.7782 40.984 54.6262 40.412 54.6262 39.772C54.6262 39.124 54.7742 38.552 55.0702 38.056C55.3742 37.552 55.7862 37.16 56.3062 36.88C56.8262 36.592 57.4142 36.448 58.0702 36.448C58.7022 36.448 59.2702 36.584 59.7742 36.856C60.2862 37.12 60.6902 37.504 60.9862 38.008C61.2822 38.504 61.4302 39.1 61.4302 39.796C61.4302 39.868 61.4262 39.952 61.4182 40.048C61.4102 40.136 61.4022 40.22 61.3942 40.3H56.1502V39.208H60.4102L59.6902 39.532C59.6902 39.196 59.6222 38.904 59.4862 38.656C59.3502 38.408 59.1622 38.216 58.9222 38.08C58.6822 37.936 58.4022 37.864 58.0822 37.864C57.7622 37.864 57.4782 37.936 57.2302 38.08C56.9902 38.216 56.8022 38.412 56.6662 38.668C56.5302 38.916 56.4622 39.212 56.4622 39.556V39.844C56.4622 40.196 56.5382 40.508 56.6902 40.78C56.8502 41.044 57.0702 41.248 57.3502 41.392C57.6382 41.528 57.9742 41.596 58.3582 41.596C58.7022 41.596 59.0022 41.544 59.2582 41.44C59.5222 41.336 59.7622 41.18 59.9782 40.972L60.9742 42.052C60.6782 42.388 60.3062 42.648 59.8582 42.832C59.4102 43.008 58.8942 43.096 58.3102 43.096Z" fill="#9C00CD"/>
</svg>
