<svg width="24" height="24" viewBox="0 0 24 24" fill="none" xmlns="http://www.w3.org/2000/svg">
<path fill-rule="evenodd" clip-rule="evenodd" d="M21.455 5.41607C21.55 5.56028 21.5924 5.73286 21.5749 5.90466C21.5574 6.07647 21.4811 6.23697 21.359 6.35907L12.166 15.5511C12.072 15.6451 11.9546 15.7124 11.826 15.7461L7.99702 16.7461C7.87045 16.7791 7.73744 16.7784 7.61121 16.7441C7.48498 16.7099 7.3699 16.6432 7.27741 16.5507C7.18492 16.4582 7.11822 16.3431 7.08395 16.2169C7.04967 16.0906 7.049 15.9576 7.08202 15.8311L8.08202 12.0031C8.11121 11.8882 8.16628 11.7814 8.24302 11.6911L17.47 2.47007C17.6106 2.32962 17.8013 2.25073 18 2.25073C18.1988 2.25073 18.3894 2.32962 18.53 2.47007L21.359 5.29807C21.3949 5.33408 21.4271 5.37361 21.455 5.41607ZM19.768 5.82807L18 4.06107L9.48202 12.5791L8.85702 14.9721L11.25 14.3471L19.768 5.82807Z" fill="#393838"/>
<path d="M19.6411 17.1599C19.9144 14.8238 20.0017 12.4698 19.9021 10.1199C19.8999 10.0645 19.9092 10.0093 19.9293 9.95769C19.9494 9.90608 19.98 9.85916 20.0191 9.81989L21.0031 8.83589C21.0299 8.80885 21.0641 8.79014 21.1013 8.78203C21.1386 8.77392 21.1774 8.77674 21.2131 8.79015C21.2488 8.80356 21.2799 8.827 21.3026 8.85764C21.3253 8.88828 21.3386 8.92483 21.3411 8.96289C21.5263 11.7541 21.456 14.5564 21.1311 17.3349C20.8951 19.3569 19.2711 20.9419 17.2581 21.1669C13.7634 21.5539 10.2367 21.5539 6.74206 21.1669C4.73006 20.9419 3.10506 19.3569 2.86906 17.3349C2.45446 13.7903 2.45446 10.2095 2.86906 6.66489C3.10506 4.64289 4.72906 3.05789 6.74206 2.83289C9.39443 2.53877 12.0668 2.46752 14.7311 2.61989C14.7692 2.62262 14.8057 2.63623 14.8364 2.6591C14.867 2.68196 14.8904 2.71313 14.9039 2.74891C14.9174 2.78468 14.9203 2.82357 14.9124 2.86096C14.9044 2.89835 14.8859 2.93268 14.8591 2.95989L13.8661 3.95189C13.8272 3.99064 13.7807 4.02101 13.7297 4.04113C13.6786 4.06125 13.6239 4.0707 13.5691 4.06889C11.3458 3.99331 9.12001 4.07853 6.90906 4.32389C6.263 4.39539 5.65991 4.68261 5.19721 5.13914C4.73451 5.59567 4.43923 6.19485 4.35906 6.83989C3.9581 10.2682 3.9581 13.7316 4.35906 17.1599C4.43923 17.8049 4.73451 18.4041 5.19721 18.8606C5.65991 19.3172 6.263 19.6044 6.90906 19.6759C10.2641 20.0509 13.7361 20.0509 17.0921 19.6759C17.7381 19.6044 18.3412 19.3172 18.8039 18.8606C19.2666 18.4041 19.5609 17.8049 19.6411 17.1599Z" fill="#393838"/>
</svg>
