<svg width="18" height="18" viewBox="0 0 18 18" fill="none" xmlns="http://www.w3.org/2000/svg">
<path fill-rule="evenodd" clip-rule="evenodd" d="M9 1.75C8.04792 1.75 7.10516 1.93753 6.22554 2.30187C5.34593 2.66622 4.5467 3.20025 3.87348 3.87348C3.20025 4.5467 2.66622 5.34593 2.30187 6.22554C1.93753 7.10516 1.75 8.04792 1.75 9C1.75 9.95208 1.93753 10.8948 2.30187 11.7745C2.66622 12.6541 3.20025 13.4533 3.87348 14.1265C4.5467 14.7997 5.34593 15.3338 6.22554 15.6981C7.10516 16.0625 8.04792 16.25 9 16.25C10.9228 16.25 12.7669 15.4862 14.1265 14.1265C15.4862 12.7669 16.25 10.9228 16.25 9C16.25 7.07718 15.4862 5.23311 14.1265 3.87348C12.7669 2.51384 10.9228 1.75 9 1.75ZM0.25 9C0.25 6.67936 1.17187 4.45376 2.81282 2.81282C4.45376 1.17187 6.67936 0.25 9 0.25C11.3206 0.25 13.5462 1.17187 15.1872 2.81282C16.8281 4.45376 17.75 6.67936 17.75 9C17.75 11.3206 16.8281 13.5462 15.1872 15.1872C13.5462 16.8281 11.3206 17.75 9 17.75C6.67936 17.75 4.45376 16.8281 2.81282 15.1872C1.17187 13.5462 0.25 11.3206 0.25 9Z" fill="#393838"/>
<path fill-rule="evenodd" clip-rule="evenodd" d="M7.84991 6.30892C6.91637 7.0767 6.29255 8.15665 6.09391 9.34892L5.65591 11.9819C5.42891 13.3499 7.01891 14.2669 8.08891 13.3869L10.1499 11.6909C11.0834 10.9231 11.7073 9.84319 11.9059 8.65092L12.3439 6.01792C12.5709 4.64992 10.9809 3.73292 9.91091 4.61292L7.84991 6.30992V6.30892ZM8.99991 7.49992C8.60208 7.49992 8.22055 7.65796 7.93925 7.93926C7.65794 8.22057 7.49991 8.6021 7.49991 8.99992C7.49991 9.39775 7.65794 9.77928 7.93925 10.0606C8.22055 10.3419 8.60208 10.4999 8.99991 10.4999C9.39773 10.4999 9.77927 10.3419 10.0606 10.0606C10.3419 9.77928 10.4999 9.39775 10.4999 8.99992C10.4999 8.6021 10.3419 8.22057 10.0606 7.93926C9.77927 7.65796 9.39773 7.49992 8.99991 7.49992Z" fill="#393838"/>
</svg>
