<svg width="220" height="176" viewBox="0 0 220 176" fill="none" xmlns="http://www.w3.org/2000/svg">
<path d="M66 88C87.2781 88 104.5 70.7781 104.5 49.5C104.5 28.2219 87.2781 11 66 11C44.7219 11 27.5 28.2219 27.5 49.5C27.5 70.7781 44.7219 88 66 88ZM92.4 99H89.5469C82.3969 102.438 74.4563 104.5 66 104.5C57.5437 104.5 49.6375 102.438 42.4531 99H39.6C17.7375 99 0 116.738 0 138.6V148.5C0 157.609 7.39062 165 16.5 165H115.5C124.609 165 132 157.609 132 148.5V138.6C132 116.738 114.262 99 92.4 99ZM165 88C183.219 88 198 73.2188 198 55C198 36.7812 183.219 22 165 22C146.781 22 132 36.7812 132 55C132 73.2188 146.781 88 165 88ZM181.5 99H180.194C175.416 100.65 170.363 101.75 165 101.75C159.637 101.75 154.584 100.65 149.806 99H148.5C141.488 99 135.025 101.028 129.353 104.294C137.741 113.334 143 125.331 143 138.6V151.8C143 152.556 142.828 153.278 142.794 154H203.5C212.609 154 220 146.609 220 137.5C220 116.222 202.778 99 181.5 99Z" fill="#393838"/>
</svg>
