<svg width="44" height="38" viewBox="0 0 44 38" fill="none" xmlns="http://www.w3.org/2000/svg">
<path d="M31.7656 0.25C27.7324 0.25 24.2012 1.98437 22 4.91602C19.7988 1.98437 16.2676 0.25 12.2344 0.25C9.02388 0.253619 5.94592 1.53059 3.67575 3.80075C1.40559 6.07092 0.128619 9.14888 0.125 12.3594C0.125 26.0312 20.3965 37.0977 21.2598 37.5547C21.4873 37.6771 21.7416 37.7412 22 37.7412C22.2584 37.7412 22.5127 37.6771 22.7402 37.5547C23.6035 37.0977 43.875 26.0312 43.875 12.3594C43.8714 9.14888 42.5944 6.07092 40.3242 3.80075C38.0541 1.53059 34.9761 0.253619 31.7656 0.25ZM22 34.3906C18.4336 32.3125 3.25 22.8457 3.25 12.3594C3.2531 9.97752 4.20066 7.69411 5.88489 6.00989C7.56911 4.32566 9.85252 3.3781 12.2344 3.375C16.0332 3.375 19.2227 5.39844 20.5547 8.64844C20.6724 8.93502 20.8727 9.18013 21.13 9.35263C21.3874 9.52514 21.6902 9.61724 22 9.61724C22.3098 9.61724 22.6126 9.52514 22.87 9.35263C23.1273 9.18013 23.3276 8.93502 23.4453 8.64844C24.7773 5.39258 27.9668 3.375 31.7656 3.375C34.1475 3.3781 36.4309 4.32566 38.1151 6.00989C39.7993 7.69411 40.7469 9.97752 40.75 12.3594C40.75 22.8301 25.5625 32.3105 22 34.3906Z" fill="#393838"/>
</svg>
