<svg width="16" height="17" viewBox="0 0 16 17" fill="none" xmlns="http://www.w3.org/2000/svg">
<path d="M9.14514 0.435545C8.83049 0.155126 8.42243 0 7.99943 0C7.57643 0 7.16837 0.155126 6.85371 0.435545L0.568 6.0379C0.389283 6.19731 0.246359 6.39222 0.148505 6.60998C0.0506516 6.82774 5.50375e-05 7.06347 0 7.30188V15.2996C0 15.7506 0.180612 16.1831 0.502103 16.502C0.823594 16.8208 1.25963 17 1.71429 17H4C4.45466 17 4.89069 16.8208 5.21218 16.502C5.53367 16.1831 5.71429 15.7506 5.71429 15.2996V10.7651C5.71429 10.6148 5.77449 10.4706 5.88165 10.3643C5.98882 10.258 6.13416 10.1983 6.28571 10.1983H9.71429C9.86584 10.1983 10.0112 10.258 10.1183 10.3643C10.2255 10.4706 10.2857 10.6148 10.2857 10.7651V15.2996C10.2857 15.7506 10.4663 16.1831 10.7878 16.502C11.1093 16.8208 11.5453 17 12 17H14.2857C14.7404 17 15.1764 16.8208 15.4979 16.502C15.8194 16.1831 16 15.7506 16 15.2996V7.30188C15.9999 7.06347 15.9493 6.82774 15.8515 6.60998C15.7536 6.39222 15.6107 6.19731 15.432 6.0379L9.14629 0.435545H9.14514Z" fill="#9C00CD"/>
</svg>
