<svg width="16" height="17" viewBox="0 0 16 17" fill="none" xmlns="http://www.w3.org/2000/svg">
<path d="M8.64615 0.995458L8.85944 1.18555H8.86056L14.9328 6.59758C14.9328 6.59765 14.9329 6.59772 14.933 6.59779C15.0332 6.68723 15.1129 6.79619 15.1674 6.9174C15.2219 7.03862 15.2499 7.1696 15.25 7.30188C15.25 7.30194 15.25 7.302 15.25 7.30205V15.2996C15.25 15.5497 15.1499 15.7908 14.9697 15.9695C14.7893 16.1484 14.5434 16.25 14.2857 16.25H12C11.7423 16.25 11.4964 16.1484 11.316 15.9695C11.1358 15.7908 11.0357 15.5497 11.0357 15.2996V10.7651C11.0357 10.4139 10.895 10.0783 10.6465 9.83182C10.3982 9.58555 10.0628 9.44828 9.71429 9.44828H6.28571C5.93721 9.44828 5.60176 9.58555 5.35348 9.83182C5.105 10.0783 4.96429 10.4139 4.96429 10.7651V15.2996C4.96429 15.5497 4.86418 15.7908 4.68401 15.9695C4.50363 16.1484 4.2577 16.25 4 16.25H1.71429C1.45659 16.25 1.21066 16.1484 1.03028 15.9695C0.850103 15.7908 0.75 15.5497 0.75 15.2996V7.30205C0.75 7.302 0.75 7.30194 0.75 7.30188C0.750055 7.1696 0.778131 7.03862 0.832607 6.9174C0.887074 6.79619 0.966815 6.68723 1.06702 6.59779C1.0671 6.59772 1.06717 6.59765 1.06725 6.59758L7.35271 0.995458C7.35272 0.995451 7.35273 0.995443 7.35274 0.995436C7.52946 0.837953 7.75973 0.75 7.99943 0.75C8.23914 0.75 8.46942 0.837961 8.64615 0.995458Z" stroke="#393838" stroke-width="1.5"/>
</svg>
