<svg width="3" height="14" viewBox="0 0 3 14" fill="none" xmlns="http://www.w3.org/2000/svg">
<path d="M1.375 2.25C1.02982 2.25 0.75 1.91421 0.75 1.5C0.75 1.08579 1.02982 0.75 1.375 0.75C1.72018 0.75 2 1.08579 2 1.5C2 1.91421 1.72018 2.25 1.375 2.25Z" stroke="#393838" stroke-width="1.5" stroke-linecap="round" stroke-linejoin="round"/>
<path d="M1.375 7.75C1.02982 7.75 0.75 7.41421 0.75 7C0.75 6.58579 1.02982 6.25 1.375 6.25C1.72018 6.25 2 6.58579 2 7C2 7.41421 1.72018 7.75 1.375 7.75Z" stroke="#393838" stroke-width="1.5" stroke-linecap="round" stroke-linejoin="round"/>
<path d="M1.375 13.25C1.02982 13.25 0.75 12.9142 0.75 12.5C0.75 12.0858 1.02982 11.75 1.375 11.75C1.72018 11.75 2 12.0858 2 12.5C2 12.9142 1.72018 13.25 1.375 13.25Z" stroke="#393838" stroke-width="1.5" stroke-linecap="round" stroke-linejoin="round"/>
</svg>
